<?xml version="1.0" standalone="no"?>
<!DOCTYPE svg PUBLIC "-//W3C//DTD SVG 20010904//EN"
 "http://www.w3.org/TR/2001/REC-SVG-20010904/DTD/svg10.dtd">
<svg version="1.0" xmlns="http://www.w3.org/2000/svg"
 width="540.000000pt" height="540.000000pt" viewBox="0 0 540.000000 540.000000"
 preserveAspectRatio="xMidYMid meet">
<metadata>
Created by potrace 1.11, written by Peter Selinger 2001-2013
</metadata>
<g transform="translate(0.000000,540.000000) scale(0.100000,-0.100000)"
fill="#000000" stroke="none">
<path d="M1810 4960 c-160 -22 -270 -51 -315 -85 -17 -14 -39 -25 -48 -25 -45
0 -217 -164 -317 -301 -21 -30 -54 -74 -72 -99 -18 -25 -39 -56 -46 -70 -7
-14 -22 -34 -31 -45 -10 -11 -27 -35 -37 -54 -23 -41 -31 -54 -69 -110 -42
-61 -82 -139 -106 -206 -3 -11 -21 -52 -38 -91 -17 -39 -31 -82 -31 -97 0 -14
-4 -28 -8 -31 -26 -16 -34 -120 -30 -391 3 -240 5 -284 20 -305 9 -14 19 -50
23 -80 4 -30 11 -59 15 -65 4 -5 14 -30 21 -55 6 -25 25 -73 41 -106 15 -34
28 -64 28 -67 0 -3 23 -40 50 -81 28 -42 50 -78 50 -81 0 -3 31 -47 68 -98 37
-51 76 -105 86 -122 11 -16 39 -53 63 -83 23 -29 43 -59 43 -66 0 -34 214
-235 301 -283 35 -19 102 -61 151 -95 15 -10 36 -18 47 -18 10 0 45 -13 76
-30 31 -16 62 -30 68 -30 6 0 18 -6 26 -13 9 -7 81 -32 161 -55 80 -24 165
-51 190 -62 25 -10 95 -31 155 -45 61 -14 126 -34 145 -44 19 -10 56 -21 83
-25 26 -3 66 -14 90 -25 120 -54 135 -55 676 -59 411 -2 527 0 624 13 65 8
139 15 165 15 25 0 53 6 61 13 22 19 113 34 276 47 190 16 294 43 351 93 38
33 44 44 44 77 0 44 -14 64 -125 180 -39 41 -87 100 -105 130 -19 30 -47 71
-62 90 -15 19 -28 40 -28 46 0 6 -6 17 -14 23 -19 16 -56 87 -56 107 0 8 -11
32 -25 53 -13 22 -27 52 -31 68 -4 15 -15 40 -25 55 -11 15 -19 43 -19 66 0
22 -6 45 -14 51 -7 6 -16 33 -20 60 -3 26 -9 51 -13 55 -11 11 -33 79 -33 103
0 12 -4 25 -10 28 -5 3 -10 15 -10 26 0 11 -9 45 -19 77 -11 32 -23 82 -27
112 -4 30 -10 60 -14 65 -4 6 -10 35 -13 65 -3 30 -12 69 -21 85 -9 17 -16 47
-16 69 0 36 -33 187 -51 231 -4 11 -10 36 -13 55 -4 19 -13 48 -21 64 -8 15
-15 35 -15 44 0 9 -8 25 -18 36 -10 12 -24 39 -31 61 -14 42 -38 98 -73 175
-11 25 -24 54 -28 65 -11 30 -29 68 -39 85 -5 8 -17 40 -26 70 -10 30 -25 64
-35 75 -9 11 -23 35 -30 54 -7 18 -33 56 -57 84 -24 28 -43 55 -43 59 0 14
-152 188 -164 188 -7 0 -34 23 -61 50 -27 28 -54 50 -61 50 -6 0 -34 18 -62
40 -27 22 -54 40 -58 40 -5 0 -27 14 -48 30 -22 17 -47 30 -56 30 -10 0 -34
11 -54 25 -20 14 -47 27 -61 31 -13 3 -29 12 -36 20 -6 8 -17 14 -24 14 -20 0
-149 42 -164 54 -10 8 -147 11 -450 12 -369 2 -457 -1 -571 -16z"/>
</g>
</svg>
